<svg width="171" height="62" viewBox="0 0 171 62" fill="none" xmlns="http://www.w3.org/2000/svg">
<path d="M28.264 15.496V36.136C28.264 38.984 28.808 41.128 29.896 42.568C30.984 44.008 32.84 44.728 35.464 44.728C38.088 44.728 39.944 44.008 41.032 42.568C42.12 41.128 42.664 38.984 42.664 36.136V15.496H47.992V35.272C47.992 37.736 47.768 39.864 47.32 41.656C46.872 43.448 46.152 44.936 45.16 46.12C44.168 47.272 42.872 48.136 41.272 48.712C39.704 49.288 37.768 49.576 35.464 49.576C33.16 49.576 31.208 49.288 29.608 48.712C28.04 48.136 26.76 47.272 25.768 46.12C24.776 44.936 24.056 43.448 23.608 41.656C23.16 39.864 22.936 37.736 22.936 35.272V15.496H28.264ZM65.0583 30.472L61.3623 23.368H61.2183V49H56.0343V15.496H62.0823L73.0263 34.024L76.7223 41.128H76.8663V15.496H82.0503V49H76.0023L65.0583 30.472ZM111.228 49L108.204 39.928H95.6759L92.7479 49H87.2279L98.6519 15.496H105.468L116.892 49H111.228ZM102.06 20.488H101.82L96.9719 35.272H106.86L102.06 20.488ZM131.373 20.296V49H125.949V20.296H115.965V15.496H141.357V20.296H131.373ZM146.644 49V15.496H168.1V20.296H152.068V29.608H166.612V34.408H152.068V44.2H168.1V49H146.644Z" fill="url(#paint0_linear)"/>
<path d="M18.6253 0.0718943C18.434 -0.0239648 18.2087 -0.0239648 18.0174 0.0718943L0.375013 8.89311C0.0398843 9.06085 -0.0958132 9.46846 0.0718903 9.80359C0.167352 9.99435 0.346983 10.1291 0.556831 10.1674L7.55883 11.4411L8.83247 18.4431C8.8846 18.7301 9.1144 18.9517 9.40313 18.9934C9.43506 18.998 9.46726 19.0002 9.49947 19.0002C9.75667 19.0003 9.9918 18.855 10.1068 18.6249L18.928 0.982495C19.0959 0.647446 18.9604 0.239757 18.6253 0.0718943Z" fill="url(#paint1_linear)"/>
<defs>
<linearGradient id="paint0_linear" x1="19" y1="0" x2="62.3641" y2="106.312" gradientUnits="userSpaceOnUse">
<stop stop-color="#72EDF2"/>
<stop offset="1" stop-color="#5151E5"/>
</linearGradient>
<linearGradient id="paint1_linear" x1="0" y1="0" x2="19.0002" y2="19.0001" gradientUnits="userSpaceOnUse">
<stop stop-color="#ABDCFF"/>
<stop offset="1" stop-color="#0396FF"/>
</linearGradient>
</defs>
</svg>
