<svg width="78" height="26" viewBox="0 0 78 26" fill="none" xmlns="http://www.w3.org/2000/svg">
<path d="M3.86 7.04V15.64C3.86 16.8267 4.08667 17.72 4.54 18.32C4.99333 18.92 5.76667 19.22 6.86 19.22C7.95333 19.22 8.72667 18.92 9.18 18.32C9.63333 17.72 9.86 16.8267 9.86 15.64V7.04H12.08V15.28C12.08 16.3067 11.9867 17.1933 11.8 17.94C11.6133 18.6867 11.3133 19.3067 10.9 19.8C10.4867 20.28 9.94667 20.64 9.28 20.88C8.62667 21.12 7.82 21.24 6.86 21.24C5.9 21.24 5.08667 21.12 4.42 20.88C3.76667 20.64 3.23333 20.28 2.82 19.8C2.40667 19.3067 2.10667 18.6867 1.92 17.94C1.73333 17.1933 1.64 16.3067 1.64 15.28V7.04H3.86ZM19.1909 13.28L17.6509 10.32H17.5909V21H15.4309V7.04H17.9509L22.5109 14.76L24.0509 17.72H24.1109V7.04H26.2709V21H23.7509L19.1909 13.28ZM38.4283 21L37.1683 17.22H31.9483L30.7283 21H28.4283L33.1883 7.04H36.0283L40.7883 21H38.4283ZM34.6083 9.12H34.5083L32.4883 15.28H36.6083L34.6083 9.12ZM46.8219 9.04V21H44.5619V9.04H40.4019V7.04H50.9819V9.04H46.8219ZM53.1848 21V7.04H62.1248V9.04H55.4448V12.92H61.5048V14.92H55.4448V19H62.1248V21H53.1848Z" fill="url(#paint0_linear)"/>
<path d="M77.7831 9.04162C77.6724 8.98613 77.542 8.98613 77.4312 9.04162L67.2171 14.1487C67.0231 14.2458 66.9445 14.4818 67.0416 14.6758C67.0969 14.7862 67.2009 14.8643 67.3224 14.8864L71.3762 15.6238L72.1136 19.6776C72.1437 19.8438 72.2768 19.9721 72.444 19.9962C72.4624 19.9989 72.4811 20.0002 72.4997 20.0002C72.6486 20.0002 72.7848 19.9161 72.8513 19.7829L77.9584 9.56882C78.0556 9.37484 77.9771 9.13881 77.7831 9.04162Z" fill="url(#paint1_linear)"/>
<defs>
<linearGradient id="paint0_linear" x1="0" y1="0" x2="18.1324" y2="44.6337" gradientUnits="userSpaceOnUse">
<stop stop-color="#72EDF2"/>
<stop offset="1" stop-color="#5151E5"/>
</linearGradient>
<linearGradient id="paint1_linear" x1="67" y1="9" x2="78.0002" y2="20.0001" gradientUnits="userSpaceOnUse">
<stop stop-color="#ABDCFF"/>
<stop offset="1" stop-color="#0396FF"/>
</linearGradient>
</defs>
</svg>
